<svg width="1536" height="815" xmlns="http://www.w3.org/2000/svg" xml:space="preserve" style="fill-rule:evenodd;clip-rule:evenodd;stroke-linejoin:round;stroke-miterlimit:2"><path d="M714.709 1.878c-11.123.643-15.852 1.895-15.15 4.009.562 1.69 9.235 7.695 19.273 13.343 21.346 12.011 28.443 18.093 18.448 15.808-3.52-.804-19.648-3.473-35.84-5.93-32.968-5.002-114.684-6.578-115.815-2.233-.695 2.67 5.418 6.015 35.131 19.226 20.988 9.332 65.389 35.599 78.157 46.239l8.927 7.438-8.96-1.598c-4.928-.878-23.947-7.096-42.264-13.818-37.711-13.838-65.88-20.378-87.548-20.327-28.866.068-32.89 4.593-15.99 17.978 5.697 4.513 9.895 8.667 9.329 9.234-.566.566-13.003-.776-27.638-2.983-38.653-5.827-82.955-7.885-85.377-3.966-2.484 4.02 5.816 12.851 26.128 27.797 8.8 6.475 15.997 12.414 15.994 13.199-.004.784-25.636 1.561-56.96 1.726-61.162.321-82.554 3.349-82.554 11.684 0 3.001 11.917 10.201 39.364 23.783 21.65 10.713 38.745 20.097 37.988 20.854-.756.757-23.654 2.311-50.884 3.454-37.377 1.569-57.483 3.741-82.056 8.864-35.663 7.435-51.217 12.116-52.44 15.784-.437 1.313 5.626 6.227 13.474 10.921 7.847 4.694 13.901 8.855 13.451 9.247-.449.392-9.457-.827-20.017-2.708-21.982-3.915-73.699-4.697-79.231-1.197-3.004 1.901-2.099 3.721 4.75 9.561 4.653 3.967 17.554 15.634 28.669 25.925 11.114 10.292 21.361 18 22.77 17.129 1.409-.871 2.562-2.021 2.562-2.556 0-2.351-21.419-25.408-32.561-35.051l-12.226-10.581 30.574 1.828c16.815 1.005 36.328 3.062 43.362 4.57 13.76 2.951 13.638 3.462-3.044 12.69-4.729 2.616-11.268 10.994-17.471 22.383-8.938 16.41-10.683 18.203-17.729 18.219-9.841.021-47.689 18.165-61.5 29.481-15.533 12.727-28.216 32.929-38.186 60.824-11.439 32.003-20.838 50.467-35.87 70.464-13.784 18.337-23.491 24.194-52.036 31.398-29.322 7.401-37.995 20.598-26.224 39.902 4.18 6.855 6.939 8.328 18.551 9.906 23.069 3.134 45.399 11.088 82.93 29.54 27.905 13.719 51.529 22.576 104.96 39.354 37.922 11.907 75.862 24.098 84.31 27.09 8.448 2.992 35.385 10.527 59.861 16.745 46.873 11.909 62.805 18.99 72.103 32.048l5.579 7.834-5.779 6.152c-3.179 3.383-11.138 7.932-17.687 10.107-14.725 4.891-23.197 10.645-23.197 15.754 0 13.481 48.364 34.373 80.64 34.834 24.249.346 33.063-5.861 51.2-36.051 14.603-24.308 22.648-27.904 53.628-23.971 12.745 1.618 32.945 5.874 44.891 9.458 11.945 3.584 23.158 5.964 24.917 5.289 6.824-2.619-.742-9.662-20.698-19.266-26.439-12.723-41.661-16.461-60.194-14.781-25.011 2.268-42.182 13.536-65.87 43.224-7.658 9.598-16.123 18.628-18.811 20.067-3.463 1.853-10.343 1.481-23.615-1.278-26.426-5.493-45.608-11.252-45.608-13.693 0-1.146 4.481-3.426 9.959-5.067 12.456-3.732 27.57-20.021 29.849-32.17 4.248-22.645-15.383-35.715-73.53-48.958-21.56-4.91-70.312-19.241-108.339-31.846-38.026-12.606-77.728-25.447-88.226-28.536l-19.087-5.616 16.49-4.514c12.373-3.387 18.576-6.79 24.847-13.633 15.479-16.89 7.386-26.091-9.517-10.82-12.647 11.425-18.843 13.176-46.126 13.029-20.963-.112-23.119-.707-58.88-16.242-20.416-8.868-37.466-16.457-37.888-16.864-.422-.407 0-6.528.939-13.604l1.707-12.865 14.864-5.42c26.37-9.615 44.546-34.454 63.708-87.061 16.212-44.508 41.075-75.113 73.254-90.172 9.234-4.321 17.458-7.186 18.277-6.367.819.818.237 6.418-1.292 12.443-2.245 8.843-2.051 12.07 1.004 16.732 6.889 10.515 9.722 7.972 15.399-13.824 4.318-16.579 16.064-39.81 26.371-52.157 5.675-6.797 8.253-8.088 13.513-6.768 8.087 2.03 21.946 26.787 24.2 43.228 3.122 22.778-9.029 62.088-24.837 80.354-10.826 12.508-11.998 15.785-6.41 17.93 7.649 2.935 21.221-8.005 36.475-29.403.383-.537 9.665 7.417 20.626 17.677 10.962 10.259 33.178 28.595 49.37 40.747a10770.352 10770.352 0 0 1 57.409 43.438c15.383 11.74 36.087 25.236 46.008 29.99 36.356 17.423 36.194 9.006-.6-31.337-34.817-38.173-59.553-61.484-79.923-75.317-18.852-12.802-53.761-29.521-66.58-31.888-16.217-2.994-16.734-4.021-11.18-22.212 3.143-10.295 4.936-23.668 4.919-36.681-.032-24.427-4.553-35.404-21.62-52.48-6.332-6.336-11.744-13.085-12.027-14.997-.716-4.842-10.692-15.037-20.87-21.327-4.703-2.907-7.602-6.184-6.443-7.283 1.159-1.098 17.083-5.193 35.387-9.1 29.818-6.364 39.405-7.189 92.16-7.933 45.282-.638 58.719-1.566 58.182-4.015-1.311-5.977-15.697-15.973-46.954-32.625-17.179-9.152-31.341-17.792-31.471-19.2-.593-6.41 110.102-7.591 131.327-1.401 20.601 6.008 15.18-4.126-14.403-26.926-12.343-9.512-23.593-18.378-25.001-19.702-3.283-3.086 30.208-.359 74.24 6.045 35.996 5.236 47.32 5.938 47.431 2.944.039-1.056-6.585-7.94-14.72-15.298L556.8 71.804l10.988-.062c17.729-.1 48.248 7.234 80.989 19.463 30.619 11.436 63.596 18.562 71.63 15.479 3.504-1.345 3.764-2.638 1.412-7.032-3.591-6.71-65.812-47.782-93.339-61.612L608 27.75l21.76 1.7c11.968.935 37.312 3.955 56.32 6.71 19.008 2.756 43.533 6.301 54.499 7.878 25.366 3.648 29.641.881 16.952-10.972-4.785-4.47-14.808-11.574-22.272-15.787-7.465-4.213-13.025-8.206-12.357-8.874 1.772-1.772 79.716 3.911 115.498 8.421 52.845 6.662 79.279 15.005 142.839 45.086 18.017 8.527 33.375 14.888 34.127 14.135 1.957-1.956-3.474-11.633-13.477-24.013l-8.634-10.687 18.572 5.241c35.321 9.966 62.207 20.463 90.253 35.239 15.488 8.16 46.016 24.284 67.84 35.832 21.824 11.548 57.953 33.062 80.286 47.809 22.334 14.747 41.147 26.272 41.808 25.612 7.552-7.553-52.313-46.946-151.579-99.745-28.185-14.991-61.397-31.35-73.804-36.353-23.557-9.499-76.863-24.262-87.604-24.262-8.862 0-7.781 5.785 2.822 15.095 4.977 4.37 8.025 7.945 6.774 7.945-1.251 0-13.487-5.239-27.19-11.643C921.55 23.48 896.322 16.163 852.48 10.52 797.862 3.489 744.601.148 714.709 1.878M852.48 49.316c0 2.143 1.44 4.454 3.2 5.136 1.76.681 21.056 14.414 42.88 30.518 43.537 32.124 53.171 38.176 106.677 67.024 43.274 23.331 61.603 31.714 89.891 41.116 11.665 3.877 24.601 9.904 28.748 13.393 16.574 13.947 14.582-.968-3.306-24.743-15.358-20.413-32.663-36.564-64.804-60.482-62.892-46.803-86.185-57.647-144.406-67.231-53.105-8.741-58.88-9.205-58.88-4.731m-115.2 5.868c0 2.322 5.074 6.137 12.16 9.145 6.688 2.839 44.175 20.813 83.305 39.944 48.909 23.911 71.97 33.956 73.787 32.139 2.937-2.937-9.788-10.551-60.452-36.17-16.896-8.544-32.448-16.808-34.56-18.364-7.531-5.548 13.54.404 60.037 16.959 25.276 9 46.3 16.363 46.72 16.363.42 0 .763-1.601.763-3.558 0-7.316-56.503-27.924-120.32-43.883-19.008-4.754-39.601-10.424-45.762-12.601-13.971-4.936-15.678-4.934-15.678.026m195.238 11.495c31.108 6.642 59.255 20.604 100.336 49.773 34.067 24.188 83.647 68.284 80.447 71.548-4.158 4.243-55.209-18.159-114.747-50.354-41.573-22.48-87.543-52.648-106.88-70.141l-9.754-8.824L896 60.285c7.744.882 24.177 3.759 36.518 6.394m-160.63 27.963c-1.961 3.173 3.547 6.68 22.199 14.135 22.232 8.885 32.794 20.26 66.944 72.098 30.613 46.47 68.518 91.906 94.886 113.738 20.833 17.25 46.954 32.18 50.354 28.78 3.429-3.429-5.553-19.479-26.972-48.193-10.503-14.08-19.142-26.505-19.198-27.61-.175-3.474 9.119 2.716 33.301 22.181 26.201 21.089 42.298 31.04 44.486 27.5 2.375-3.843-15.911-36.884-30.865-55.769-18.337-23.157-35.214-37.136-82.863-68.631-76.569-50.61-146.983-86.786-152.272-78.229M652.8 106.097c0 2.52 3.9 5.793 9.6 8.057 5.28 2.097 14.208 5.748 19.84 8.113 6.83 2.869 28.992 22.675 66.56 59.484 56.842 55.695 72.579 68.373 101.748 81.972 18.513 8.63 46.713 16.363 52.115 14.29 4.89-1.876-1.372-11.873-38.649-61.693-35.789-47.832-57.715-68.957-86.238-83.088-21.002-10.405-25.399-11.535-95.17-24.447-12.471-2.308-24.279-4.812-26.24-5.565-2.164-.83-3.566.301-3.566 2.877m-96.822 1.67c.631 1.976 9.714 8.362 20.184 14.19 10.471 5.829 29.406 16.737 42.078 24.241 12.672 7.504 35.136 20.106 49.92 28.005 25.116 13.42 65.542 38.818 87.74 55.124 6.681 4.908 10.481 6.276 12.32 4.437 1.839-1.839-6.104-12.618-25.754-34.948-49.945-56.755-68.144-68.346-133.333-84.916-33.313-8.468-54.687-10.934-53.155-6.133M1088 117.846c0 1.456 9.016 12.219 20.037 23.918 11.02 11.7 35.029 39.597 53.354 61.994 44.839 54.803 82.305 97.042 86.076 97.042 5.118 0 2.415-7.147-11.236-29.721-14.959-24.736-33.814-61.23-32.377-62.666 1.587-1.587 24.619 13.436 74.916 48.867 76.2 53.677 89.009 60.005 80.659 39.847-7.689-18.562-103.567-105.34-155.325-140.582-22.936-15.617-49.698-27.133-80.612-34.69-29.963-7.323-35.492-7.948-35.492-4.009m-440.32 16.949c9.152 3.411 22.4 10.024 29.44 14.697 15.504 10.291 49.218 41.375 47.174 43.494-1.978 2.05-126.271-68.098-129.276-72.961-1.494-2.417 30.985 6.692 52.662 14.77m102.242-3.009c38.998 13.264 60.366 30.37 97.183 77.8 29.459 37.95 40.027 53.575 37.766 55.837-2.88 2.88-36.966-12.056-56.263-24.654-22.643-14.781-41.254-31.984-87.786-81.148l-35.542-37.553 13.13 1.733c7.221.953 21.402 4.547 31.512 7.985m396.677 5.574c24.386 7.998 35.11 14.387 77.081 45.922 54.585 41.014 115.697 96.115 111.384 100.428-1.039 1.038-39.831-25.374-87.005-59.24-38.349-27.529-60.219-38.245-60.219-29.505 0 1.631 4.726 13.225 10.502 25.764 5.777 12.54 10.083 23.219 9.57 23.732-.513.513-13.015-14.075-27.782-32.419-14.768-18.343-35.757-43.892-46.642-56.776-10.886-12.885-19.814-24.312-19.84-25.395-.06-2.455 8.694-.465 32.951 7.489m-206.567-1.168c-1.69 1.69-3.069 4.282-3.065 5.76.004 1.478 11.032 11.328 24.506 21.888 30.745 24.096 51.506 47.871 81.595 93.44 13.015 19.712 30.765 44.667 39.445 55.455 21.284 26.456 59.849 62.546 84.137 78.738 27.195 18.129 61.596 35.065 64.773 31.888 3.276-3.276-37.862-73.54-61.364-104.807-9.649-12.836-28.763-36.429-42.477-52.428-13.713-15.999-23.618-29.527-22.01-30.063 1.608-.536 10.696 3.442 20.196 8.841 21.82 12.401 25.729 13.981 27.499 11.118 3.744-6.059-57.163-43.64-122.843-75.798-23.949-11.726-53.225-27.121-65.057-34.212-11.832-7.091-21.682-12.892-21.888-12.892-.206 0-1.757 1.382-3.447 3.072m-48.729 26.778c64.101 39.788 91.745 61.399 109.961 85.968 8.281 11.168 15.056 21.398 15.056 22.734 0 3.494-9.108-1.862-20.19-11.874-11.103-10.032-45.911-31.958-50.732-31.958-9.054 0-.299 17.264 27.173 53.582 19.948 26.371 20.471 27.435 10.657 21.667-12.192-7.166-44.561-37.674-66.06-62.264-21.972-25.129-76.148-105.145-71.191-105.145.747 0 21.143 12.281 45.326 27.29M445.44 146.855c0 4.636 11.998 9.112 55.219 20.602 55.222 14.68 77.711 25.365 113.916 54.122 11.647 9.251 24.375 18.474 28.286 20.497l7.11 3.676-2.477-7.105c-3.396-9.742-33.53-49.466-51.303-67.629-8.031-8.208-18.51-16.556-23.286-18.552-5.439-2.272-22.986-4.193-46.955-5.139-21.048-.83-47.774-2.123-59.39-2.872-17.489-1.128-21.12-.715-21.12 2.4m119.349 11.982c10.928 4.155 26.432 17.864 40.572 35.875 13.23 16.853 12.806 17.07-6.449 3.308-18.939-13.535-53.109-28.602-80.512-35.498-14.08-3.544-26.752-7.011-28.16-7.705-5.177-2.552 67.583 1.372 74.549 4.02m483.186 40.647c35.698 18.114 38.429 20.018 41.317 28.803 3.357 10.214 10.877 20.531 37.925 52.033 30.099 35.057 52.348 65.806 69.511 96.07 9.087 16.023 16.057 29.598 15.489 30.166-1.754 1.755-28.752-14.652-49.839-30.287-44.072-32.678-71.955-63.771-107.658-120.054-11.968-18.867-30.688-44.456-41.6-56.866-10.912-12.409-19.84-23.112-19.84-23.783 0-2.579 17.909 5.252 54.695 23.918M650.24 187.277c0 1.567 7.922 11.188 17.604 21.38 19.932 20.984 34.181 41.019 46.382 65.216 21.915 43.464 42.139 65.888 84.529 93.724 30.911 20.298 88.796 48.916 92.153 45.559 1.562-1.562-1.714-8.66-9.028-19.563-6.314-9.412-11.48-17.685-11.48-18.385 0-.701 6.387 1.171 14.193 4.158 8.46 3.237 15.12 4.495 16.488 3.113 2.815-2.845-89.157-98.889-110.208-115.088-8.139-6.263-33.031-21.38-55.316-33.594-22.284-12.214-50.597-28.318-62.917-35.787-12.32-7.47-22.4-12.299-22.4-10.733M481.293 188.8c.007 1.056 8.359 7.623 18.56 14.592 28.556 19.512 46.214 37.683 77.492 79.747 33.53 45.092 57.527 71.343 79.645 87.126 18.532 13.224 84.239 45.481 87.96 43.181 5.449-3.368-16.181-33.124-54.903-75.526-23.023-25.213-26.667-31.361-21.95-37.044 4.382-5.281 12.669-4.927 28.223 1.204 7.144 2.816 13.701 5.12 14.572 5.12 3.591 0-9.436-11.975-28.474-26.174-22.262-16.604-49.168-30.24-100.018-50.688-18.304-7.361-46.817-20.15-63.362-28.421-28.524-14.259-37.774-17.473-37.745-13.117m-96.336 16.139c-15.278 4.844-23.944 11.007-20.424 14.527.958.958 17.538 2.588 36.845 3.622 36.483 1.953 79.833 9.126 96.015 15.887 11.145 4.657 14.15 1.973 6.178-5.517-7.533-7.076-51.199-27.65-65.811-31.006-17.143-3.939-35.219-3.087-52.803 2.487m56.726 7.698c11.34 4.498 5.404 5.192-24.403 2.854-23.409-1.836-26.054-2.497-20.48-5.121 7.454-3.509 33.659-2.186 44.883 2.267m322.477 48.161c16.414 9.436 28.74 20.128 62.08 53.852 22.88 23.144 41.6 43.055 41.6 44.247 0 1.192-4.562-.16-10.138-3.005-10.679-5.448-18.022-6.658-18.022-2.969 0 1.211 6.912 10.683 15.36 21.048 8.448 10.365 15.36 19.842 15.36 21.059 0 6.293-81.791-42.636-102.409-61.263-12.232-11.051-30.992-38.364-49.752-72.436-8.076-14.668-16.404-29.295-18.506-32.504-3.961-6.045 12.556 2.151 64.427 31.971m-161.28-12.582c26.647 11.262 55.84 26.353 63.091 32.614 3.868 3.34 3.712 4.134-1.92 9.767-6.63 6.629-8.089 18.402-3.372 27.214 1.517 2.835 15.435 19.176 30.929 36.312 40.473 44.765 40.934 46.652 7.332 30.06-43.693-21.577-68.225-44.797-118.398-112.066l-34.759-46.604 15.749 5.942c8.661 3.267 27.268 10.81 41.348 16.761m-244.48-9.245c0 2.597 3.872 5.029 10.88 6.834 40.217 10.36 58.726 21.519 97.92 59.037 21.29 20.38 43.474 38.198 47.556 38.198 4.292 0 2.472-10.126-5.569-30.976-4.363-11.314-7.478-21.027-6.921-21.583.556-.556 9.598 4.773 20.093 11.843 21.1 14.215 52.144 30.594 67.317 35.517 12.098 3.926 16.731.718 10.106-6.998-9.078-10.573-76.099-67.602-86.85-73.903-14.212-8.328-42.186-13.124-95.471-16.369-23.332-1.421-46.165-3.269-50.741-4.108-6.51-1.193-8.32-.647-8.32 2.508m112.304 14.833c10.375 1.451 23.623 4.712 29.44 7.247 10.761 4.689 52.938 38.733 66.896 53.995l7.68 8.398-12.388-7.083c-6.813-3.896-22.941-13.919-35.84-22.273-22.004-14.253-40.964-22.709-44.033-19.64-.742.742 3.994 11.942 10.524 24.889 6.53 12.948 11.199 24.215 10.375 25.038-.823.823-12.535-9.687-26.027-23.355-13.492-13.669-33.374-30.625-44.182-37.681-10.809-7.056-20.241-13.437-20.96-14.18-1.615-1.669 33.049 1.083 58.515 4.645m786.256 16.191c0 .658 10.499 13.042 23.33 27.52 12.832 14.479 30.282 36.117 38.777 48.085 8.496 11.968 22.634 30.4 31.417 40.96 44.691 53.729 150.915 145.534 159.018 137.432 7.287-7.288-71.018-120.055-106.987-154.072-32.842-31.06-97.71-81.408-117.946-91.544-17.126-8.579-27.609-11.761-27.609-8.381m-412.16 5.383c0 .802 11.852 14.338 26.337 30.08 14.485 15.742 37.746 42.446 51.69 59.342 32.542 39.432 56.75 62.812 79.32 76.609 66.368 40.569 115.267 67.801 117.584 65.484 1.705-1.705.687-4.91-3.051-9.606-10.639-13.364-35.133-49.054-54.28-79.089-31.385-49.233-56.035-69.692-115.27-95.669-15.762-6.912-43.297-20.677-61.188-30.588-29.1-16.121-41.142-20.969-41.142-16.563m317.444 3.022c.002 1.056 9.916 13.352 22.031 27.324 12.115 13.972 34.985 42.772 50.822 64 29.903 40.081 51.032 61.989 78.635 81.528 24.495 17.34 57.753 35.868 60.896 33.925 4.634-2.864-33.6-71.116-55.424-98.936-19.82-25.266-90.047-77.46-133.865-99.491-21.578-10.85-23.101-11.4-23.095-8.35M355.84 294.24c0 1.32 5.896 5.609 13.102 9.531 11.472 6.244 15.819 11.281 34.942 40.48a47137.108 47137.108 0 0 0 33.618 51.267c14.372 21.865 47.716 56.129 66.905 68.753 7.793 5.126 32.888 17.903 55.768 28.394 22.88 10.49 50.054 23.74 60.388 29.444 10.333 5.704 19.509 10.371 20.392 10.371 4.071 0 .405-8.035-14.539-31.861-8.88-14.156-27.024-45.186-40.32-68.954-39.581-70.752-50.147-79.095-143.216-113.09-64.903-23.707-87.04-29.896-87.04-24.335m985.6 36.088c50.892 40.707 58.926 48.244 83.391 78.235 20.512 25.146 65.744 90.835 63.851 92.729-.638.637-11.852-7.463-24.92-18.001-51.053-41.164-101.669-94.178-136.918-143.406-10.141-14.161-21.142-28.748-24.449-32.416-3.306-3.668-7.681-8.874-9.723-11.568-3.435-4.534-3.33-4.693 1.408-2.129 2.816 1.523 24.128 17.974 47.36 36.556m-423.68-11.914c16.896 8.15 39.36 19.041 49.92 24.202 10.56 5.161 28.218 16.162 39.241 24.446 18.403 13.831 22.4 18.643 48.915 58.88 30.401 46.136 35.934 55.338 33.272 55.338-2.209 0-67.727-39.318-86.868-52.131-22.258-14.899-41.638-34.051-75.476-74.589-16.454-19.712-33.242-39.765-37.306-44.562-4.064-4.797-6.271-8.2-4.904-7.563 1.367.638 16.31 7.828 33.206 15.979m310.534 4.643c37.141 25.911 63.026 47.023 78.918 64.366 14.49 15.813 49.254 72.005 46.346 74.913-.771.771-5.253-.578-9.96-2.997-31.722-16.305-65.121-48.126-101.916-97.099-13.752-18.304-29.991-39.49-36.087-47.08-12.927-16.095-10.464-15.238 22.699 7.897m-214.534-14.624c0 8.784 38.854 80.157 52.721 96.845 20.825 25.064 53.473 52.257 85.018 70.814 15.06 8.859 38.841 23.154 52.849 31.768 40.308 24.786 43.92 24.443 25.528-2.422-6.478-9.462-10.234-16.606-8.347-15.875 1.887.73 13.738 7.805 26.335 15.722 32.928 20.694 35.806 19.736 19.009-6.328-19.833-30.775-41.72-49.22-104.633-88.181-42.004-26.011-77.252-51.108-105.51-75.123-35.841-30.459-42.97-34.975-42.97-27.22m-568.708 20.766c91.234 34.078 90.778 33.675 144.094 127.321 15.258 26.799 27.279 49.188 26.714 49.753-1.297 1.298-78.161-33.356-93.62-42.208-31.239-17.887-68.566-56.714-89.893-93.505-5.918-10.208-13.823-23.168-17.568-28.8-11.998-18.046-18.445-29.44-16.656-29.44.958 0 22.076 7.595 46.929 16.879m620.765 26.187c33.246 25.584 67.251 49.041 102.823 70.928 15.488 9.53 35.072 22.604 43.52 29.054 16.392 12.516 40.439 36.247 38.596 38.089-.611.611-10.649-4.759-22.306-11.933-11.658-7.174-22.684-13.044-24.503-13.044-5.484 0-3.751 8.538 4.317 21.259 8.594 13.552 7.687 14.625-5.11 6.041-4.903-3.289-21.586-13.232-37.074-22.096-43.945-25.149-73.045-49.391-96.244-80.179-17.516-23.245-36.408-58.145-31.476-58.145.788 0 13.144 9.012 27.457 20.026m-500.057 3.116c0 12.53 15.602 34.315 62.051 86.64 15.119 17.033 40.57 47.426 56.557 67.54 42.922 54.004 76.37 87.006 83.633 82.517 3.438-2.124-.6-9.12-44.107-76.427-36.302-56.159-46.429-70.845-61.595-89.332-9.035-11.014-9.46-12.16-4.506-12.16 7.78 0 50.513 16.182 81.736 30.952 14.613 6.912 26.997 12.568 27.52 12.568.523 0 .951-1.621.951-3.603 0-9.384-53.099-48.232-87.708-64.17-17.198-7.92-107.069-39.747-112.234-39.747-1.264 0-2.298 2.35-2.298 5.222m172.728.015c-1.988 3.216 1.235 6.924 48.835 56.191 18.371 19.015 38.998 42.06 45.837 51.212 26.91 36.011 37.142 44.178 101.24 80.805 21.824 12.471 49.353 28.731 61.175 36.134 31.564 19.763 31.786 18.39 4.409-27.297-43.096-71.92-63.059-96.134-99.166-120.287-22.565-15.095-78.127-44.167-123.858-64.809-31.291-14.123-36.188-15.644-38.472-11.949m-111.616 24.169c22.748 7.726 46.24 16.499 52.204 19.495 16.759 8.42 40.706 23.21 39.513 24.403-.589.59-10.161-2.276-21.27-6.367-26.964-9.93-59.541-17.099-62.818-13.822-1.655 1.655 3.405 9.454 14.729 22.703 15.264 17.859 69.552 97.534 85.267 125.142l5.829 10.24-10.459-11.52c-5.753-6.336-17.094-20.055-25.203-30.487-24.042-30.929-53.79-66.453-77.372-92.393-23.276-25.605-37.364-42.701-44.829-54.4-6.271-9.828-4.198-9.501 44.409 7.006m-279.174-.764c36.095 14.984 48.394 24.023 93.813 68.95 63.979 63.284 54.744 60.565-40.975-12.065-53.773-40.802-81.784-64.779-75.878-64.949 1.858-.054 12.226 3.575 23.04 8.064m487.618 28.385c69.351 35.142 85.46 46.875 111.168 80.965 16.104 21.356 50.708 76.612 48.978 78.211-.496.458-16.454-8.054-35.462-18.917-19.008-10.863-43.698-24.848-54.867-31.078-24.65-13.75-39.073-27.513-70.898-67.648-13.398-16.896-35.221-40.883-48.497-53.303-16.675-15.602-22.159-22.045-17.738-20.841 3.52.958 33.812 15.633 67.316 32.611m-640.57.918c-8.146 10.356-5.699 38.665 3.425 39.63 7.245.766 13.311-1.033 16.229-4.81 3.869-5.01 4.24-29.718.55-36.613-3.805-7.11-13.906-6.214-20.204 1.793m753.601 29.311c-1.166 1.885 2.037 6.322 8.349 11.565 24.037 19.966 57.234 57.41 121.175 136.677 49.642 61.542 88.406 100.147 93.036 92.655.714-1.155-5.717-14.694-14.291-30.086-20.241-36.338-39.019-75.078-37.249-76.848 3.561-3.56 49.773 23.623 94.083 55.343 13.381 9.579 30.408 20.469 37.837 24.201 15.24 7.654 18.269 11.776 40.132 54.6 15.396 30.159 25.799 45.03 29.78 42.569 2.726-1.685 1.717-9.318-8.217-62.155-7.911-42.075-8.435-46.53-5.462-46.437 1.056.034 11.572 8.18 23.369 18.104 33.856 28.48 33.555 16.792-.9-34.947-24.979-37.508-43.491-54.473-82.066-75.207-16.854-9.059-43.994-24.864-60.311-35.123-16.317-10.258-31.581-19.386-33.92-20.283-11.294-4.334-1.428 9.538 30.33 42.646 19.02 19.828 37.846 40.852 41.835 46.721 10.751 15.815 25.983 43.931 25.983 47.961 0 1.936-7.2-3.527-16-12.139-37.931-37.124-165.54-123.436-233.109-157.671-52.521-26.61-51.806-26.319-54.384-22.146m349.573 17.361c0 1.22 5.184 13.161 11.52 26.536 13.071 27.594 36.871 84.058 46.688 110.767 8.217 22.354 10.485 61.249 5.852 100.345-2.114 17.833-2.325 27.694-.63 29.389 3.792 3.792 5.564-.448 10.735-25.688 7.065-34.484 18.245-52.256 34.978-55.603 6.853-1.37 10.137.45 27.635 15.321 17.346 14.741 27.062 20.28 27.062 15.429 0-2.755-36.514-86.948-45.448-104.793-13.816-27.595-22.915-38.637-49.272-59.795-13.376-10.737-32.74-27.308-43.032-36.824-17.017-15.734-26.088-20.979-26.088-15.084m-576 4.083c0 4.109 14.717 22.969 41.03 52.58 22.446 25.26 49.93 60.408 78.068 99.84 12.56 17.6 33.236 42.783 45.949 55.962 38.269 39.673 64.637 58.207 106.269 74.691l24.364 9.648 1.334 14.615c1.12 12.273 2.555 15.616 8.96 20.864 12.052 9.877 20.057 13.364 43.395 18.907 24.047 5.711 24.125 5.696 44.484-8.794 6.123-4.358 14.051-12.903 17.617-18.989 5.423-9.254 6.02-12.088 3.642-17.305-1.563-3.431-4.033-6.239-5.489-6.239-1.456 0-6.526 6.048-11.268 13.44-14.921 23.26-20.872 26.306-43.497 22.264-26.143-4.67-47.61-20.532-43.501-32.143 4.838-13.67 21.482-23.402 47.436-27.738 18.865-3.151 12.768-16.021-6.349-13.401-15.119 2.073-32.446 9.888-43.567 19.653l-9.317 8.18-31.097-29.632c-34.759-33.12-62.992-66.941-81.459-97.583-15.826-26.258-28.951-52.48-26.27-52.48 1.148 0 15.277 7.617 31.397 16.926 16.12 9.309 39.087 22.577 51.038 29.484 26.687 15.423 42.86 21.624 62.796 24.078l15.315 1.884-12.292-10.205c-6.761-5.613-21.161-15.186-32-21.273-10.839-6.088-43.969-26.914-73.622-46.28-69.176-45.179-98.353-61.28-154.441-85.232-25.067-10.704-46.329-19.462-47.25-19.462-.921 0-1.675 1.683-1.675 3.74m297.441 19.542c41.769 20.96 167.673 107.42 203.039 139.429 12.418 11.239 9.198 9.577-20.558-10.608-41.937-28.45-80.495-49.703-90.172-49.703-7.24 0-1.678 19.467 15.921 55.717 20.067 41.332 18.056 40.395-23.864-11.12-29.083-35.74-88.879-107.887-104.327-125.877-5.139-5.984-8.597-10.88-7.685-10.88.912 0 13.353 5.869 27.646 13.042m370.719-2.751c0 1.436 2.705 6.908 6.011 12.16 7.999 12.706 14.972 28.533 30.026 68.151 13.933 36.666 21.605 51.099 35.105 66.043 12.903 14.281 18.895 16.527 48.72 18.264l26.423 1.539-1.763-8.224c-5.992-27.946-25.238-62.057-47.2-83.655-17.471-17.181-69.243-61.31-83.637-71.29-8.727-6.051-13.685-7.133-13.685-2.988m-611.427 12.38c51.343 21.987 61.918 27.913 137.827 77.24 27.456 17.841 57.662 36.87 67.125 42.286 9.462 5.416 16.769 10.282 16.238 10.814-1.454 1.453-14.098-5.342-57.24-30.764-21.537-12.691-45.729-25.777-53.76-29.08-15.096-6.208-26.123-7.828-26.123-3.837 0 4.333 41.34 74.457 55.913 94.844 8.025 11.227 25.58 32.268 39.011 46.759 30.084 32.457 31.247 34.191 19.69 29.362-33.736-14.096-94.245-69.067-121.67-110.535-19.486-29.462-54.909-74.938-82.356-105.727-22.533-25.277-28.767-33.793-24.735-33.793.579 0 14.115 5.594 30.08 12.431m585.191 28.249c13.361 10.302 24.736 21.696 30.956 31.01 9.156 13.712 43.92 88.748 43.92 94.8 0 1.494-5.104-.795-11.341-5.087-6.238-4.292-13.207-7.803-15.487-7.803-6.304 0-19.606 7.375-28.486 15.794l-7.953 7.54-1.726-19.045c-1.938-21.385-8.756-48.115-17.116-67.108-4.459-10.13-18.062-42.456-34.969-83.101-.879-2.112 3.504.785 9.74 6.438 6.236 5.653 20.844 17.606 32.462 26.562m96.741 21.738c29.763 26.723 39.999 39.2 52.471 63.958 13.852 27.498 13.598 29.788-3.296 29.77-28.063-.03-38.385-7.035-57.784-39.215-7.598-12.603-29.57-69.692-33.178-86.205-1.605-7.344-2.145-7.754 41.787 31.692M545.28 510.284c0 3.809 17.721 24.325 52.342 60.596 12.768 13.376 30.922 32.777 40.343 43.113 9.421 10.337 18.344 18.043 19.829 17.125 1.714-1.06 1.851-3.255.375-6.013-2.941-5.494-10.579-34.508-9.397-35.691.486-.486 12.823 4.197 27.416 10.405 14.593 6.209 48.996 19.624 76.452 29.812 27.456 10.187 57.16 22.448 66.008 27.246 17.963 9.74 21.032 10.451 21.032 4.872 0-4.737-33.157-29.6-60.535-45.392-11.165-6.44-34.594-17.681-52.064-24.98-39.25-16.398-118.677-54.121-150.574-71.513-24.576-13.399-31.227-15.44-31.227-9.58m-57.814 22.836c2.383 15.067 19.372 48.896 33.474 66.656 15.708 19.78 38.564 36.101 81.856 58.449 19.758 10.199 47.444 25.415 61.524 33.813 29.762 17.752 41.397 23.077 43.388 19.856 1.719-2.782-46.16-55.241-66.921-73.322-8.177-7.122-28.92-23.528-46.095-36.459-17.175-12.931-42.519-33.079-56.32-44.773-28.373-24.043-43.826-35.1-49.053-35.1-2.767 0-3.185 2.455-1.853 10.88m137.229 21.148c26.754 13.391 64.854 31.281 84.667 39.755 39.816 17.031 77.031 35.41 72.102 35.609-4.437.179-71.444-25.167-103.931-39.313-34.595-15.063-37.533-15.136-37.533-.932v10.826l-23.226-22.986c-23.796-23.552-45.021-47.307-42.267-47.307.849 0 23.434 10.956 50.188 24.348m617.518 3.671c25.719 13.866 33.106 19.383 51.217 38.252 19.369 20.179 41.179 48.848 38.923 51.164-.511.525-7.993-4.947-16.625-12.16-8.633-7.213-16.747-13.115-18.032-13.115-4 0-2.592 18.755 4.149 55.253 3.567 19.313 6.066 36.375 5.552 37.915-.513 1.54-13.952-23.113-29.864-54.784-31.82-63.333-44.108-83.799-63.018-104.957-6.927-7.751-14.899-16.846-17.715-20.211l-5.12-6.119 10.24 6.28c5.632 3.453 23.764 13.57 40.293 22.482M535.04 567.38c17.6 14.025 46.368 36.39 63.928 49.7 29.942 22.695 70.963 60.402 68.448 62.918-1.437 1.436-84.065-41.871-102.142-53.535-16.642-10.739-35.201-29.346-47.159-47.281-10.407-15.609-23.397-43.709-18.443-39.895 1.852 1.426 17.768 14.068 35.368 28.093m501.76 28.741c0 2.717 6.528 13.99 14.506 25.05 7.979 11.06 25.243 35.116 38.365 53.458 32.293 45.139 60.206 79.059 65.974 80.169 8.431 1.624 3.587-20.242-10.973-49.532-12.571-25.29-14.366-27.472-55.498-67.47-45.804-44.541-52.374-49.769-52.374-41.675m124.147 13.574c5.159 24.875 20.968 65.611 31.994 82.446 19.67 30.032 56.86 61.234 67.924 56.988 8.439-3.238-8.317-44.551-29.723-73.282-15.903-21.346-59.092-67.807-66.93-72.002-4.67-2.499-4.908-2.071-3.265 5.85M944.64 629.949c0 3.687 45.593 40.531 69.987 56.557 23.969 15.746 41.042 22.689 45.306 18.425 3.826-3.826-4.594-29.211-12.486-37.645-9.766-10.438-21.704-15.866-51.501-23.419-14.436-3.659-31.885-8.796-38.776-11.414-6.892-2.619-12.53-3.745-12.53-2.504m-250.841 4.291c.08 3.902 4.241 7.809 23.075 21.665 31.888 23.46 57.238 39.189 74.483 46.215 46.052 18.763 89.523 35.504 100.874 38.847 31.423 9.255 67.769 10.807 67.769 2.895 0-5.685-23.609-16.294-70.88-31.849-30.85-10.152-63.495-23.447-98.367-40.062-72.63-34.604-97.085-44.115-96.954-37.711m503.53 15.36c8.444 9.504 21.007 24.768 27.917 33.92 12.814 16.972 27.718 46.548 26.021 51.638-1.396 4.189-27.071-17.718-41.192-35.146-18.288-22.572-38.689-67.692-30.608-67.692 1.379 0 9.417 7.776 17.862 17.28m-61.678 57.802c6.423 12.431 11.068 23.212 10.322 23.958-1.449 1.449-53.889-68.182-61.676-81.895-3.125-5.502 2.615-1.053 17.513 13.575 17.562 17.244 24.585 26.451 33.841 44.362m-125.731-50.708c7.04 2.023 16.555 5.996 21.143 8.829 9.022 5.569 18.512 19.076 18.527 26.369.009 4.27-.545 4.249-9.59-.369-10.517-5.37-48.271-31.741-54.4-37.998-3.436-3.508-3.032-3.741 3.84-2.215 4.224.938 13.44 3.361 20.48 5.384m-200.96 33.961c14.784 7.055 41.28 17.612 58.88 23.461 53.126 17.657 69.12 23.588 69.12 25.634 0 7.999-119.186-32.819-159.694-54.691-15.643-8.446-42.546-26.515-42.546-28.575 0-.93 19.076 7.85 74.24 34.171"/></svg>