<svg viewBox="0 0 3313 3067" xmlns="http://www.w3.org/2000/svg" xml:space="preserve" style="fill-rule:evenodd;clip-rule:evenodd;stroke-linecap:round;stroke-linejoin:round;stroke-miterlimit:1.5">
    <path d="M1388.699 11.569c-198.365 34.872-375.423 103.349-585.296 226.367-152.685 89.495-248.652 161.691-351.062 264.1C334.296 620.082 248.956 738.97 176.565 886.227c-51.684 105.135-76.879 171.905-101.795 269.771-59.562 233.954-60.598 460.85-3.142 688.239 62.388 246.903 190.762 471.72 375.528 657.645 138.265 139.133 289.353 244.35 461.158 321.148 171.351 76.595 345.34 129.564 505.233 153.813 74.27 11.264 105.296 12.947 234.67 12.733 124.921-.207 161.615-2.196 226.389-12.27 243.106-37.81 454.663-118.371 648.796-247.063 97.428-64.585 151.505-109.169 240.427-198.215 142.392-142.594 249.218-304.592 323.365-490.373 42.648-106.858 93.551-300.14 110.886-421.046 10.815-75.427 9.166-288.546-2.841-367.191-65.095-426.372-305.567-788.831-680.12-1025.132-170.109-107.319-366.968-181.855-573.421-217.112C1883.353 1.21 1853.162.048 1662.853.446c-185.02.386-221.497 1.866-274.154 11.123m516.276 9.959c532.605 82.156 977.653 418.452 1177.953 890.108 46.46 109.403 87.261 259.992 94.099 347.304 1.546 19.74 1.545 29.679-.002 22.087-1.547-7.593-7.742-38.652-13.767-69.021-32.38-163.217-98.565-327.725-189.643-471.373-115.7-182.481-293.918-358.811-477.237-472.18C2176.106 70.388 1787.185-9.185 1413.627 46.922c-81.791 12.285-234.396 44.797-295.405 62.935-30.322 9.015-55.906 15.617-56.852 14.67-2.511-2.51 117.556-44.568 174-60.949 61.483-17.843 177.617-40.423 257.254-50.018 92.828-11.184 316.166-6.869 412.351 7.968m-168.411 49.993c23.645 3.093-.87 4.542-85.62 5.058-175.044 1.068-308.177 19.435-462.188 63.764-280.566 80.755-554.145 255.969-737.442 472.295-53.972 63.697-65.253 75.501-47.75 49.962 27.188-39.669 96.548-119.076 150.674-172.5 201.594-198.977 465.017-342.838 735.071-401.439 44.123-9.574 115.619-18.426 198.78-24.609 38.573-2.869 208.503 2.24 248.475 7.469m62.119 9.589c-5.315 1.388-14.011 1.388-19.326 0-5.315-1.389-.966-2.526 9.663-2.526s14.978 1.137 9.663 2.526m25.909 21.11c205.836 24.078 367.206 74.635 523.675 164.067 408.421 233.44 671.703 617.424 733.625 1069.956 9.322 68.126 9.29 269.049-.054 336.822-48.969 355.179-227.069 679.887-496.391 905.009-137.813 115.195-245.336 174.936-415.176 230.676-244.587 80.272-523.492 100.532-777.562 56.484-218.347-37.855-434.155-125.151-614.154-248.43-157.682-107.994-308.93-262.822-410.268-419.978-188.628-292.527-259.426-636.299-202.25-982.059 15.385-93.039 46.311-183.803 98.772-289.888 145.127-293.47 375.308-519.956 682.157-671.206 173.393-85.468 355.008-136.57 554.927-156.145 58.634-5.741 258.332-2.837 322.699 4.692m161.713-5.016c-1.835 1.835-6.598 2.031-10.584.436-4.404-1.762-3.096-3.071 3.336-3.336 5.821-.24 9.082 1.066 7.248 2.9m22.086 5.522c-1.835 1.835-6.597 2.031-10.583.436-4.405-1.763-3.096-3.071 3.336-3.336 5.821-.24 9.082 1.065 7.247 2.9m94.274 27.066c42.497 13.685 101.509 34.97 131.138 47.301 58.098 24.179 140.514 64.382 140.514 68.543 0 1.408-19.257-6.324-42.793-17.182-63.016-29.072-171.338-71.98-249.856-98.97-91.386-31.414-76.858-31.201 20.997.308m144.653 30.336c4.556 2.944 5.798 5.353 2.761 5.353s-9.249-2.409-13.804-5.353-5.798-5.352-2.761-5.352 9.249 2.408 13.804 5.352m101.712 46.713c157.685 78.006 282.966 167.148 403.844 287.348 121.56 120.879 204.632 236.07 278.74 386.517 37.54 76.208 94.232 223.31 93.364 242.253-.157 3.422-9.65-19.868-21.097-51.756-43.467-121.091-94.031-219.691-174.046-339.395-154.899-231.733-348.799-402.617-599.692-528.511-40.998-20.573-72.255-37.459-69.459-37.526 2.795-.066 42.551 18.415 88.346 41.07m74.982 66.706c0 1.518-9.939-2.31-22.087-8.507-12.148-6.197-22.087-12.51-22.087-14.029 0-1.518 9.939 2.31 22.087 8.507 12.148 6.198 22.087 12.51 22.087 14.029m198.78 156.458c68.369 52.452 200.176 186.924 255.046 260.203 101.68 135.792 175.939 293.247 219.564 465.547 32.954 130.157 41.161 197.219 41.346 337.856.167 127.256-4.219 172.642-28.017 289.887-57.985 285.672-230.958 577.803-446.527 754.128-24.785 20.273-15.618 8.87 36.391-45.27 372.696-387.967 499.319-914.852 340.207-1415.631-78.295-246.423-247.097-494.268-451.891-663.493-29.956-24.753-54.466-46.155-54.466-47.559 0-2.787 16.91 9.527 88.347 64.332M512.835 484.526c-56.863 57.805-117.152 125.672-146.969 165.444C72.941 1040.697.668 1530.106 168.571 1985.995c49.012 133.079 149.492 305.887 251.4 432.365 58.192 72.222 141.07 156.245 209.499 212.393 64.501 52.926 72.504 61 33.13 33.426-310.508-217.453-526.676-549.294-593.474-911.05-82.029-444.233 60.327-899.22 384.615-1229.279 44.924-45.724 146.652-136.833 153.194-137.203 1.272-.071-41.073 43.974-94.1 97.879m1171.468 128.016c-3.144 5.874-5.716 19.493-5.716 30.264 0 16.931-2.057 20.004-15.185 22.687-188.617 38.546-289.393 93.971-335.191 184.35-26.304 51.908-23.846 118.52 5.961 161.59 23.692 34.233 26.919 30.875 26.919-28.015 0-49.43 1.355-56.013 18.888-91.785 25.33-51.679 78.189-104.113 130.197-129.151 117.075-56.363 300.452-97.772 459.679-103.801l84.205-3.188v14.931c0 29.505-209.845 433.51-360.174 693.428-282.414 488.289-473.731 731.077-662.323 840.508-85.42 49.566-175.624 71.447-294.421 71.42-119.502-.028-183.418-20.434-233.215-74.457-25.061-27.188-40.688-54.779-51.476-90.89-4.901-16.402-9.741-23.178-15.733-22.024-11.703 2.254-17.82 47.465-15.857 117.201l1.546 54.922 17.37 10.13c9.553 5.572 41.855 16.5 71.782 24.285 109.569 28.505 287.505 23.441 404.251-11.502 169.201-50.644 299.119-129.705 467.368-284.413 41.113-37.805 66.974-56.536 101.253-73.335 59.167-28.997 78.453-29.278 132.533-1.928 109.066 55.158 219.82 77.535 384.64 77.715 121.483.132 162.506-5.12 245.219-31.394 174.808-55.529 304.252-158.248 370.799-294.245 28.194-57.617 38.3-99.192 38.3-157.563 0-63.478-10.288-91.804-48.228-132.783-41.568-44.899-97.951-72.444-186.443-91.083-63.211-13.315-81.094-19.859-70.883-25.938 2.543-1.514 23.258-7.842 46.035-14.064 257.692-70.388 426.463-276.003 378.305-460.892-25.677-98.582-114.623-151.577-286.549-170.729-42.702-4.757-133.656-6.2-298.818-4.743-473.695 4.181-469.749 4.235-481.629-6.525-13.516-12.242-16.38-12.117-23.409 1.017m781.408 41.657c54.901 10.505 85.024 24.623 117.654 55.145 38.967 36.449 51.942 69.729 51.708 132.627-.313 84.067-27.945 162.394-82.861 234.885-62.84 82.951-173.943 161.072-249.677 175.559-65.159 12.464-90.075 12.668-148.11 1.212-70.659-13.947-75.589-13.942-89.636.106-8.242 8.242-10.893 16.952-9.663 31.749 1.656 19.92 2.27 20.435 26.542 22.226 13.666 1.008 51.68-2.453 84.475-7.691 107.282-17.135 206.61-2.871 272.205 39.09 53.558 34.26 74.01 75.378 74.01 148.793 0 235.094-235.629 449.979-529.981 483.324-148.495 16.822-295.116-41.204-329.124-130.252-13.184-34.522-9.554-44.418 81.85-223.124 241.928-473.001 394.919-754.961 476.374-877.945 39.675-59.903 54.726-75.609 81.14-84.676 27.656-9.492 125.807-10.075 173.094-1.028M392.038 686.771c0 1.147-4.348 5.495-9.663 9.663-8.757 6.869-8.953 6.673-2.084-2.084 7.213-9.198 11.747-12.123 11.747-7.579M258.746 860c-59.002 130.308-100.541 258.017-122.975 378.071-26.422 141.393-27.974 158.142-28.037 302.474-.04 91.704-1.554 129.25-4.341 107.672-6.998-54.181-6.457-249.964.847-306.452 16.1-124.511 45.511-241.714 87.077-346.998 24.616-62.351 76.786-172.039 81.825-172.039 1.364 0-5.115 16.772-14.396 37.272m2870.289 284.02c-1.762 4.405-3.071 3.097-3.336-3.336-.24-5.82 1.066-9.082 2.9-7.247 1.835 1.835 2.031 6.597.436 10.583m16.565 154.607c-1.762 4.405-3.071 3.096-3.336-3.336-.24-5.821 1.066-9.082 2.9-7.247 1.835 1.835 2.031 6.597.436 10.583m38.785 27.889c-1.32 6.869-2.451 2.549-2.513-9.598-.061-12.148 1.02-17.768 2.402-12.489 1.382 5.28 1.432 15.219.111 22.087m-33.209 13.763c-1.4 5.373-2.637 2.314-2.75-6.796-.112-9.111 1.033-13.507 2.546-9.769 1.512 3.739 1.604 11.193.204 16.565m5.658 55.246c-1.269 8.394-2.342 2.837-2.383-12.347-.042-15.185.997-22.052 2.308-15.261 1.31 6.791 1.344 19.215.075 27.608m33.073-8.271c-1.321 6.869-2.452 2.549-2.513-9.598-.061-12.148 1.019-17.767 2.401-12.488 1.383 5.279 1.433 15.218.112 22.086m-25.645 140.112c.025 162.583-16.089 265.773-62.98 403.305-19.909 58.395-73.682 176.651-78.249 172.085-1.524-1.525 5.777-21.275 16.225-43.889 27.875-60.33 66.674-177.158 82.978-249.854 22.691-101.172 30.928-169.661 34.461-286.532 1.815-60.044 4.256-108.216 5.424-107.048 1.168 1.168 2.131 51.538 2.141 111.933m-3033.358-13.113c-1.321 6.868-2.452 2.549-2.513-9.599-.061-12.148 1.019-17.767 2.401-12.488s1.432 15.218.112 22.087m5.521 93.868c-1.32 6.869-2.451 2.549-2.513-9.598-.061-12.148 1.02-17.768 2.402-12.489 1.382 5.28 1.432 15.219.111 22.087m18.674 103.596c29.79 155.28 88.044 307.99 170.907 448.019 62.298 105.28 130.241 191.336 228.484 289.399 130.176 129.939 238.796 208.213 401.219 289.13 150.19 74.823 305.355 123.969 474.993 150.447 108.053 16.866 358.844 18.461 457.708 2.912 101.588-15.977 183.819-34.677 275.407-62.63 7.678-2.344 7.773-1.956.668 2.71-13.827 9.082-137.161 50.193-193.133 64.377-158.961 40.286-384.344 45.419-579.892 13.207-562.391-92.64-1022.583-475.803-1192.951-993.27-28.497-86.556-53.129-196.631-56.838-253.996-1.276-19.74-1.279-29.679-.007-22.087 1.272 7.592 7.318 39.894 13.435 71.782m-41.009 1.38c-1.532 3.796-2.785.69-2.785-6.902 0-7.592 1.253-10.698 2.785-6.902 1.532 3.796 1.532 10.008 0 13.804m55.332 176.348c-1.763 4.405-3.071 3.097-3.336-3.336-.24-5.82 1.065-9.082 2.9-7.247 1.835 1.835 2.031 6.597.436 10.583m92.254 222.592c141.531 285.52 375.03 516.45 675.437 668.007 38.825 19.588 68.106 35.688 65.07 35.777-10.322.305-165.419-79.99-218.106-112.915-163.307-102.054-322.438-250.996-427.759-400.371-59.178-83.931-120.492-206.657-160.11-320.478-26.306-75.576-24.509-82.999 2.62-10.822 11.986 31.888 40.268 95.249 62.848 140.802m2742.111 30.37c-3.251 6.074-7.153 11.043-8.671 11.043-1.519 0-.102-4.969 3.149-11.043 3.251-6.074 7.153-11.044 8.671-11.044 1.519 0 .101 4.97-3.149 11.044m-125.967 236.051c-229.872 301.791-580.725 510.961-964.563 575.05-115.441 19.275-195.793 24.441-317.495 20.412-168.905-5.592-187.093-11.523-35.891-11.705 136.238-.163 182.607-4.185 321.58-27.89 296.081-50.505 552.762-161.888 763.427-331.28 65.691-52.82 170.078-155.771 219.323-216.305 22.853-28.091 42.6-51.075 43.882-51.075 1.283 0-12.336 19.257-30.263 42.793M986.516 2827.324c23.801 10.025 73.092 28.85 109.535 41.833 81.067 28.882 76.539 31.176-8.751 4.433-58.465-18.331-214.464-89.724-239.724-109.709-6.074-4.805 12.966 3.402 42.31 18.239 29.345 14.837 72.828 35.179 96.63 45.204m40.514-5.752c4.555 2.944 5.798 5.352 2.761 5.352s-9.249-2.408-13.804-5.352c-4.556-2.944-5.798-5.353-2.761-5.353s9.249 2.409 13.804 5.353m153.111 75.117c-1.835 1.835-6.597 2.031-10.583.436-4.405-1.762-3.096-3.071 3.336-3.336 5.821-.24 9.082 1.066 7.247 2.9m22.087 5.522c-1.835 1.835-6.597 2.031-10.583.436-4.405-1.763-3.097-3.071 3.336-3.336 5.82-.24 9.082 1.065 7.247 2.9m22.087 5.522c-1.835 1.834-6.598 2.031-10.584.436-4.404-1.763-3.096-3.071 3.336-3.336 5.821-.24 9.082 1.065 7.248 2.9m185.09 50.016c-3.796 1.531-10.008 1.531-13.804 0-3.796-1.532-.69-2.785 6.902-2.785 7.593 0 10.699 1.253 6.902 2.785"/>
</svg>
